solid marvinspange
   facet normal 0.000000e+000 1.000000e+000 0.000000e+000
      outer loop
         vertex 1.590000e+000 1.100000e-001 0.000000e+000
         vertex 1.040445e+000 1.100000e-001 0.000000e+000
         vertex 1.042373e+000 1.100000e-001 3.747171e-002
      endloop
   endfacet
   facet normal 0.000000e+000 1.000000e+000 0.000000e+000
      outer loop
         vertex 6.045551e-001 1.100000e-001 0.000000e+000
         vertex 0.000000e+000 1.100000e-001 0.000000e+000
         vertex 6.026269e-001 1.100000e-001 3.747171e-002
      endloop
   endfacet
   facet normal 0.000000e+000 1.000000e+000 0.000000e+000
      outer loop
         vertex 6.026269e-001 1.100000e-001 3.747171e-002
         vertex 0.000000e+000 1.100000e-001 0.000000e+000
         vertex 6.070944e-001 1.100000e-001 7.472607e-002
      endloop
   endfacet
   facet normal 0.000000e+000 1.000000e+000 0.000000e+000
      outer loop
         vertex 8.961818e-001 1.100000e-001 8.677055e-001
         vertex 9.303357e-001 1.100000e-001 8.832412e-001
         vertex 1.590000e+000 1.100000e-001 0.000000e+000
      endloop
   endfacet
   facet normal 0.000000e+000 1.000000e+000 0.000000e+000
      outer loop
         vertex 1.590000e+000 1.100000e-001 0.000000e+000
         vertex 9.303357e-001 1.100000e-001 8.832412e-001
         vertex 9.613529e-001 1.100000e-001 9.043546e-001
      endloop
   endfacet
   facet normal 0.000000e+000 1.000000e+000 0.000000e+000
      outer loop
         vertex 0.000000e+000 1.100000e-001 1.105000e+000
         vertex 6.345141e-001 1.100000e-001 1.442861e-001
         vertex 0.000000e+000 1.100000e-001 0.000000e+000
      endloop
   endfacet
   facet normal 0.000000e+000 1.000000e+000 0.000000e+000
      outer loop
         vertex 0.000000e+000 1.100000e-001 0.000000e+000
         vertex 6.345141e-001 1.100000e-001 1.442861e-001
         vertex 6.178275e-001 1.100000e-001 1.106794e-001
      endloop
   endfacet
   facet normal 0.000000e+000 1.000000e+000 0.000000e+000
      outer loop
         vertex 0.000000e+000 1.100000e-001 0.000000e+000
         vertex 6.178275e-001 1.100000e-001 1.106794e-001
         vertex 6.070944e-001 1.100000e-001 7.472607e-002
      endloop
   endfacet
   facet normal 0.000000e+000 1.000000e+000 0.000000e+000
      outer loop
         vertex 6.045551e-001 1.100000e-001 1.105000e+000
         vertex 6.026269e-001 1.100000e-001 1.067528e+000
         vertex 0.000000e+000 1.100000e-001 1.105000e+000
      endloop
   endfacet
   facet normal 0.000000e+000 1.000000e+000 0.000000e+000
      outer loop
         vertex 0.000000e+000 1.100000e-001 1.105000e+000
         vertex 6.026269e-001 1.100000e-001 1.067528e+000
         vertex 6.070944e-001 1.100000e-001 1.030274e+000
      endloop
   endfacet
   facet normal 0.000000e+000 1.000000e+000 0.000000e+000
      outer loop
         vertex 1.040445e+000 1.100000e-001 1.105000e+000
         vertex 1.590000e+000 1.100000e-001 1.105000e+000
         vertex 1.042373e+000 1.100000e-001 1.067528e+000
      endloop
   endfacet
   facet normal 0.000000e+000 1.000000e+000 0.000000e+000
      outer loop
         vertex 1.042373e+000 1.100000e-001 1.067528e+000
         vertex 1.590000e+000 1.100000e-001 1.105000e+000
         vertex 1.037906e+000 1.100000e-001 1.030274e+000
      endloop
   endfacet
   facet normal 0.000000e+000 1.000000e+000 0.000000e+000
      outer loop
         vertex 9.613529e-001 1.100000e-001 9.043546e-001
         vertex 9.883313e-001 1.100000e-001 9.304317e-001
         vertex 1.590000e+000 1.100000e-001 0.000000e+000
      endloop
   endfacet
   facet normal 0.000000e+000 1.000000e+000 0.000000e+000
      outer loop
         vertex 1.590000e+000 1.100000e-001 0.000000e+000
         vertex 9.883313e-001 1.100000e-001 9.304317e-001
         vertex 1.010486e+000 1.100000e-001 9.607140e-001
      endloop
   endfacet
   facet normal 0.000000e+000 1.000000e+000 0.000000e+000
      outer loop
         vertex 1.590000e+000 1.100000e-001 0.000000e+000
         vertex 1.010486e+000 1.100000e-001 9.607140e-001
         vertex 1.590000e+000 1.100000e-001 1.105000e+000
      endloop
   endfacet
   facet normal 0.000000e+000 1.000000e+000 0.000000e+000
      outer loop
         vertex 1.590000e+000 1.100000e-001 1.105000e+000
         vertex 1.010486e+000 1.100000e-001 9.607140e-001
         vertex 1.027173e+000 1.100000e-001 9.943206e-001
      endloop
   endfacet
   facet normal 0.000000e+000 1.000000e+000 0.000000e+000
      outer loop
         vertex 1.590000e+000 1.100000e-001 1.105000e+000
         vertex 1.027173e+000 1.100000e-001 9.943206e-001
         vertex 1.037906e+000 1.100000e-001 1.030274e+000
      endloop
   endfacet
   facet normal 0.000000e+000 1.000000e+000 0.000000e+000
      outer loop
         vertex 1.042373e+000 1.100000e-001 3.747171e-002
         vertex 1.037906e+000 1.100000e-001 7.472607e-002
         vertex 1.590000e+000 1.100000e-001 0.000000e+000
      endloop
   endfacet
   facet normal 0.000000e+000 1.000000e+000 0.000000e+000
      outer loop
         vertex 1.590000e+000 1.100000e-001 0.000000e+000
         vertex 1.037906e+000 1.100000e-001 7.472607e-002
         vertex 1.027173e+000 1.100000e-001 1.106794e-001
      endloop
   endfacet
   facet normal 0.000000e+000 1.000000e+000 0.000000e+000
      outer loop
         vertex 1.590000e+000 1.100000e-001 0.000000e+000
         vertex 1.027173e+000 1.100000e-001 1.106794e-001
         vertex 8.961818e-001 1.100000e-001 8.677055e-001
      endloop
   endfacet
   facet normal 0.000000e+000 1.000000e+000 0.000000e+000
      outer loop
         vertex 8.961818e-001 1.100000e-001 8.677055e-001
         vertex 1.027173e+000 1.100000e-001 1.106794e-001
         vertex 1.010486e+000 1.100000e-001 1.442861e-001
      endloop
   endfacet
   facet normal 0.000000e+000 1.000000e+000 0.000000e+000
      outer loop
         vertex 8.961818e-001 1.100000e-001 8.677055e-001
         vertex 1.010486e+000 1.100000e-001 1.442861e-001
         vertex 8.598846e-001 1.100000e-001 8.581997e-001
      endloop
   endfacet
   facet normal 0.000000e+000 1.000000e+000 0.000000e+000
      outer loop
         vertex 1.010486e+000 1.100000e-001 1.442861e-001
         vertex 9.883313e-001 1.100000e-001 1.745683e-001
         vertex 8.598846e-001 1.100000e-001 8.581997e-001
      endloop
   endfacet
   facet normal 0.000000e+000 1.000000e+000 0.000000e+000
      outer loop
         vertex 8.598846e-001 1.100000e-001 8.581997e-001
         vertex 9.883313e-001 1.100000e-001 1.745683e-001
         vertex 9.613529e-001 1.100000e-001 2.006454e-001
      endloop
   endfacet
   facet normal 0.000000e+000 1.000000e+000 0.000000e+000
      outer loop
         vertex 8.598846e-001 1.100000e-001 8.581997e-001
         vertex 9.613529e-001 1.100000e-001 2.006454e-001
         vertex 9.303357e-001 1.100000e-001 2.217589e-001
      endloop
   endfacet
   facet normal 0.000000e+000 1.000000e+000 0.000000e+000
      outer loop
         vertex 6.070944e-001 1.100000e-001 1.030274e+000
         vertex 6.178275e-001 1.100000e-001 9.943206e-001
         vertex 0.000000e+000 1.100000e-001 1.105000e+000
      endloop
   endfacet
   facet normal 0.000000e+000 1.000000e+000 0.000000e+000
      outer loop
         vertex 0.000000e+000 1.100000e-001 1.105000e+000
         vertex 6.178275e-001 1.100000e-001 9.943206e-001
         vertex 6.345141e-001 1.100000e-001 9.607140e-001
      endloop
   endfacet
   facet normal 0.000000e+000 1.000000e+000 0.000000e+000
      outer loop
         vertex 0.000000e+000 1.100000e-001 1.105000e+000
         vertex 6.345141e-001 1.100000e-001 9.607140e-001
         vertex 6.345141e-001 1.100000e-001 1.442861e-001
      endloop
   endfacet
   facet normal 0.000000e+000 1.000000e+000 0.000000e+000
      outer loop
         vertex 6.345141e-001 1.100000e-001 1.442861e-001
         vertex 6.345141e-001 1.100000e-001 9.607140e-001
         vertex 6.566688e-001 1.100000e-001 9.304317e-001
      endloop
   endfacet
   facet normal 0.000000e+000 1.000000e+000 0.000000e+000
      outer loop
         vertex 6.345141e-001 1.100000e-001 1.442861e-001
         vertex 6.566688e-001 1.100000e-001 9.304317e-001
         vertex 6.836471e-001 1.100000e-001 9.043546e-001
      endloop
   endfacet
   facet normal 0.000000e+000 1.000000e+000 0.000000e+000
      outer loop
         vertex 6.836471e-001 1.100000e-001 9.043546e-001
         vertex 7.146643e-001 1.100000e-001 8.832412e-001
         vertex 6.345141e-001 1.100000e-001 1.442861e-001
      endloop
   endfacet
   facet normal 0.000000e+000 1.000000e+000 0.000000e+000
      outer loop
         vertex 6.345141e-001 1.100000e-001 1.442861e-001
         vertex 7.146643e-001 1.100000e-001 8.832412e-001
         vertex 7.488183e-001 1.100000e-001 8.677055e-001
      endloop
   endfacet
   facet normal 0.000000e+000 1.000000e+000 0.000000e+000
      outer loop
         vertex 6.345141e-001 1.100000e-001 1.442861e-001
         vertex 7.488183e-001 1.100000e-001 8.677055e-001
         vertex 6.566688e-001 1.100000e-001 1.745683e-001
      endloop
   endfacet
   facet normal 0.000000e+000 1.000000e+000 0.000000e+000
      outer loop
         vertex 6.566688e-001 1.100000e-001 1.745683e-001
         vertex 7.488183e-001 1.100000e-001 8.677055e-001
         vertex 6.836471e-001 1.100000e-001 2.006454e-001
      endloop
   endfacet
   facet normal 0.000000e+000 1.000000e+000 0.000000e+000
      outer loop
         vertex 7.851154e-001 1.100000e-001 8.581997e-001
         vertex 7.488183e-001 1.100000e-001 2.372945e-001
         vertex 7.488183e-001 1.100000e-001 8.677055e-001
      endloop
   endfacet
   facet normal 0.000000e+000 1.000000e+000 0.000000e+000
      outer loop
         vertex 7.488183e-001 1.100000e-001 8.677055e-001
         vertex 7.488183e-001 1.100000e-001 2.372945e-001
         vertex 7.146643e-001 1.100000e-001 2.217589e-001
      endloop
   endfacet
   facet normal 0.000000e+000 1.000000e+000 0.000000e+000
      outer loop
         vertex 7.488183e-001 1.100000e-001 8.677055e-001
         vertex 7.146643e-001 1.100000e-001 2.217589e-001
         vertex 6.836471e-001 1.100000e-001 2.006454e-001
      endloop
   endfacet
   facet normal 0.000000e+000 1.000000e+000 0.000000e+000
      outer loop
         vertex 9.303357e-001 1.100000e-001 2.217589e-001
         vertex 8.961818e-001 1.100000e-001 2.372945e-001
         vertex 8.598846e-001 1.100000e-001 8.581997e-001
      endloop
   endfacet
   facet normal 0.000000e+000 1.000000e+000 0.000000e+000
      outer loop
         vertex 8.598846e-001 1.100000e-001 8.581997e-001
         vertex 8.961818e-001 1.100000e-001 2.372945e-001
         vertex 8.598846e-001 1.100000e-001 2.468004e-001
      endloop
   endfacet
   facet normal 0.000000e+000 1.000000e+000 0.000000e+000
      outer loop
         vertex 8.598846e-001 1.100000e-001 8.581997e-001
         vertex 8.598846e-001 1.100000e-001 2.468004e-001
         vertex 8.225000e-001 1.100000e-001 8.550000e-001
      endloop
   endfacet
   facet normal 0.000000e+000 1.000000e+000 0.000000e+000
      outer loop
         vertex 8.225000e-001 1.100000e-001 8.550000e-001
         vertex 8.598846e-001 1.100000e-001 2.468004e-001
         vertex 8.225000e-001 1.100000e-001 2.500000e-001
      endloop
   endfacet
   facet normal 0.000000e+000 1.000000e+000 0.000000e+000
      outer loop
         vertex 8.225000e-001 1.100000e-001 8.550000e-001
         vertex 8.225000e-001 1.100000e-001 2.500000e-001
         vertex 7.851154e-001 1.100000e-001 8.581997e-001
      endloop
   endfacet
   facet normal 0.000000e+000 1.000000e+000 0.000000e+000
      outer loop
         vertex 7.851154e-001 1.100000e-001 8.581997e-001
         vertex 8.225000e-001 1.100000e-001 2.500000e-001
         vertex 7.851154e-001 1.100000e-001 2.468004e-001
      endloop
   endfacet
   facet normal 0.000000e+000 1.000000e+000 0.000000e+000
      outer loop
         vertex 7.851154e-001 1.100000e-001 8.581997e-001
         vertex 7.851154e-001 1.100000e-001 2.468004e-001
         vertex 7.488183e-001 1.100000e-001 2.372945e-001
      endloop
   endfacet
   facet normal 0.000000e+000 -1.000000e+000 0.000000e+000
      outer loop
         vertex 1.042373e+000 0.000000e+000 3.747171e-002
         vertex 1.040445e+000 0.000000e+000 0.000000e+000
         vertex 1.590000e+000 0.000000e+000 0.000000e+000
      endloop
   endfacet
   facet normal 0.000000e+000 -1.000000e+000 0.000000e+000
      outer loop
         vertex 6.026269e-001 0.000000e+000 1.067528e+000
         vertex 6.045551e-001 0.000000e+000 1.105000e+000
         vertex 0.000000e+000 0.000000e+000 1.105000e+000
      endloop
   endfacet
   facet normal 0.000000e+000 -1.000000e+000 0.000000e+000
      outer loop
         vertex 1.590000e+000 0.000000e+000 1.105000e+000
         vertex 1.040445e+000 0.000000e+000 1.105000e+000
         vertex 1.042373e+000 0.000000e+000 1.067528e+000
      endloop
   endfacet
   facet normal 0.000000e+000 -1.000000e+000 0.000000e+000
      outer loop
         vertex 0.000000e+000 0.000000e+000 0.000000e+000
         vertex 6.045551e-001 0.000000e+000 0.000000e+000
         vertex 6.026269e-001 0.000000e+000 3.747171e-002
      endloop
   endfacet
   facet normal 0.000000e+000 -1.000000e+000 0.000000e+000
      outer loop
         vertex 6.026269e-001 0.000000e+000 1.067528e+000
         vertex 0.000000e+000 0.000000e+000 1.105000e+000
         vertex 6.070944e-001 0.000000e+000 1.030274e+000
      endloop
   endfacet
   facet normal 0.000000e+000 -1.000000e+000 0.000000e+000
      outer loop
         vertex 1.042373e+000 0.000000e+000 1.067528e+000
         vertex 1.037906e+000 0.000000e+000 1.030274e+000
         vertex 1.590000e+000 0.000000e+000 1.105000e+000
      endloop
   endfacet
   facet normal 0.000000e+000 -1.000000e+000 0.000000e+000
      outer loop
         vertex 1.590000e+000 0.000000e+000 1.105000e+000
         vertex 1.037906e+000 0.000000e+000 1.030274e+000
         vertex 1.027173e+000 0.000000e+000 9.943206e-001
      endloop
   endfacet
   facet normal 0.000000e+000 -1.000000e+000 0.000000e+000
      outer loop
         vertex 1.590000e+000 0.000000e+000 1.105000e+000
         vertex 1.027173e+000 0.000000e+000 9.943206e-001
         vertex 1.590000e+000 0.000000e+000 0.000000e+000
      endloop
   endfacet
   facet normal 0.000000e+000 -1.000000e+000 0.000000e+000
      outer loop
         vertex 1.590000e+000 0.000000e+000 0.000000e+000
         vertex 1.027173e+000 0.000000e+000 9.943206e-001
         vertex 1.010486e+000 0.000000e+000 9.607140e-001
      endloop
   endfacet
   facet normal 0.000000e+000 -1.000000e+000 0.000000e+000
      outer loop
         vertex 1.590000e+000 0.000000e+000 0.000000e+000
         vertex 1.010486e+000 0.000000e+000 9.607140e-001
         vertex 9.883313e-001 0.000000e+000 9.304317e-001
      endloop
   endfacet
   facet normal 0.000000e+000 -1.000000e+000 0.000000e+000
      outer loop
         vertex 1.010486e+000 0.000000e+000 1.442861e-001
         vertex 1.027173e+000 0.000000e+000 1.106794e-001
         vertex 1.590000e+000 0.000000e+000 0.000000e+000
      endloop
   endfacet
   facet normal 0.000000e+000 -1.000000e+000 0.000000e+000
      outer loop
         vertex 1.590000e+000 0.000000e+000 0.000000e+000
         vertex 1.027173e+000 0.000000e+000 1.106794e-001
         vertex 1.037906e+000 0.000000e+000 7.472607e-002
      endloop
   endfacet
   facet normal 0.000000e+000 -1.000000e+000 0.000000e+000
      outer loop
         vertex 1.590000e+000 0.000000e+000 0.000000e+000
         vertex 1.037906e+000 0.000000e+000 7.472607e-002
         vertex 1.042373e+000 0.000000e+000 3.747171e-002
      endloop
   endfacet
   facet normal 0.000000e+000 -1.000000e+000 0.000000e+000
      outer loop
         vertex 8.598846e-001 0.000000e+000 8.581997e-001
         vertex 9.883313e-001 0.000000e+000 1.745683e-001
         vertex 8.961818e-001 0.000000e+000 8.677055e-001
      endloop
   endfacet
   facet normal 0.000000e+000 -1.000000e+000 0.000000e+000
      outer loop
         vertex 8.961818e-001 0.000000e+000 8.677055e-001
         vertex 9.883313e-001 0.000000e+000 1.745683e-001
         vertex 1.010486e+000 0.000000e+000 1.442861e-001
      endloop
   endfacet
   facet normal 0.000000e+000 -1.000000e+000 0.000000e+000
      outer loop
         vertex 8.961818e-001 0.000000e+000 8.677055e-001
         vertex 1.010486e+000 0.000000e+000 1.442861e-001
         vertex 9.303357e-001 0.000000e+000 8.832412e-001
      endloop
   endfacet
   facet normal 0.000000e+000 -1.000000e+000 0.000000e+000
      outer loop
         vertex 9.303357e-001 0.000000e+000 8.832412e-001
         vertex 1.010486e+000 0.000000e+000 1.442861e-001
         vertex 1.590000e+000 0.000000e+000 0.000000e+000
      endloop
   endfacet
   facet normal 0.000000e+000 -1.000000e+000 0.000000e+000
      outer loop
         vertex 9.303357e-001 0.000000e+000 8.832412e-001
         vertex 1.590000e+000 0.000000e+000 0.000000e+000
         vertex 9.613529e-001 0.000000e+000 9.043546e-001
      endloop
   endfacet
   facet normal 0.000000e+000 -1.000000e+000 0.000000e+000
      outer loop
         vertex 9.613529e-001 0.000000e+000 9.043546e-001
         vertex 1.590000e+000 0.000000e+000 0.000000e+000
         vertex 9.883313e-001 0.000000e+000 9.304317e-001
      endloop
   endfacet
   facet normal 0.000000e+000 -1.000000e+000 0.000000e+000
      outer loop
         vertex 7.146643e-001 0.000000e+000 8.832412e-001
         vertex 6.836471e-001 0.000000e+000 9.043546e-001
         vertex 6.345141e-001 0.000000e+000 1.442861e-001
      endloop
   endfacet
   facet normal 0.000000e+000 -1.000000e+000 0.000000e+000
      outer loop
         vertex 6.566688e-001 0.000000e+000 9.304317e-001
         vertex 6.345141e-001 0.000000e+000 9.607140e-001
         vertex 0.000000e+000 0.000000e+000 1.105000e+000
      endloop
   endfacet
   facet normal 0.000000e+000 -1.000000e+000 0.000000e+000
      outer loop
         vertex 0.000000e+000 0.000000e+000 1.105000e+000
         vertex 6.345141e-001 0.000000e+000 9.607140e-001
         vertex 6.178275e-001 0.000000e+000 9.943206e-001
      endloop
   endfacet
   facet normal 0.000000e+000 -1.000000e+000 0.000000e+000
      outer loop
         vertex 0.000000e+000 0.000000e+000 1.105000e+000
         vertex 6.178275e-001 0.000000e+000 9.943206e-001
         vertex 6.070944e-001 0.000000e+000 1.030274e+000
      endloop
   endfacet
   facet normal 0.000000e+000 -1.000000e+000 0.000000e+000
      outer loop
         vertex 7.146643e-001 0.000000e+000 8.832412e-001
         vertex 6.345141e-001 0.000000e+000 1.442861e-001
         vertex 7.488183e-001 0.000000e+000 8.677055e-001
      endloop
   endfacet
   facet normal 0.000000e+000 -1.000000e+000 0.000000e+000
      outer loop
         vertex 7.488183e-001 0.000000e+000 8.677055e-001
         vertex 6.345141e-001 0.000000e+000 1.442861e-001
         vertex 6.566688e-001 0.000000e+000 1.745683e-001
      endloop
   endfacet
   facet normal 0.000000e+000 -1.000000e+000 0.000000e+000
      outer loop
         vertex 7.488183e-001 0.000000e+000 8.677055e-001
         vertex 6.566688e-001 0.000000e+000 1.745683e-001
         vertex 6.836471e-001 0.000000e+000 2.006454e-001
      endloop
   endfacet
   facet normal 0.000000e+000 -1.000000e+000 0.000000e+000
      outer loop
         vertex 6.836471e-001 0.000000e+000 9.043546e-001
         vertex 6.566688e-001 0.000000e+000 9.304317e-001
         vertex 6.345141e-001 0.000000e+000 1.442861e-001
      endloop
   endfacet
   facet normal 0.000000e+000 -1.000000e+000 0.000000e+000
      outer loop
         vertex 6.345141e-001 0.000000e+000 1.442861e-001
         vertex 6.566688e-001 0.000000e+000 9.304317e-001
         vertex 0.000000e+000 0.000000e+000 1.105000e+000
      endloop
   endfacet
   facet normal 0.000000e+000 -1.000000e+000 0.000000e+000
      outer loop
         vertex 6.345141e-001 0.000000e+000 1.442861e-001
         vertex 0.000000e+000 0.000000e+000 1.105000e+000
         vertex 6.178275e-001 0.000000e+000 1.106794e-001
      endloop
   endfacet
   facet normal 0.000000e+000 -1.000000e+000 0.000000e+000
      outer loop
         vertex 6.178275e-001 0.000000e+000 1.106794e-001
         vertex 0.000000e+000 0.000000e+000 1.105000e+000
         vertex 0.000000e+000 0.000000e+000 0.000000e+000
      endloop
   endfacet
   facet normal 0.000000e+000 -1.000000e+000 0.000000e+000
      outer loop
         vertex 6.178275e-001 0.000000e+000 1.106794e-001
         vertex 0.000000e+000 0.000000e+000 0.000000e+000
         vertex 6.070944e-001 0.000000e+000 7.472607e-002
      endloop
   endfacet
   facet normal 0.000000e+000 -1.000000e+000 0.000000e+000
      outer loop
         vertex 6.070944e-001 0.000000e+000 7.472607e-002
         vertex 0.000000e+000 0.000000e+000 0.000000e+000
         vertex 6.026269e-001 0.000000e+000 3.747171e-002
      endloop
   endfacet
   facet normal 0.000000e+000 -1.000000e+000 0.000000e+000
      outer loop
         vertex 8.961818e-001 0.000000e+000 2.372945e-001
         vertex 9.303357e-001 0.000000e+000 2.217589e-001
         vertex 8.598846e-001 0.000000e+000 8.581997e-001
      endloop
   endfacet
   facet normal 0.000000e+000 -1.000000e+000 0.000000e+000
      outer loop
         vertex 8.598846e-001 0.000000e+000 8.581997e-001
         vertex 9.303357e-001 0.000000e+000 2.217589e-001
         vertex 9.613529e-001 0.000000e+000 2.006454e-001
      endloop
   endfacet
   facet normal 0.000000e+000 -1.000000e+000 0.000000e+000
      outer loop
         vertex 8.598846e-001 0.000000e+000 8.581997e-001
         vertex 9.613529e-001 0.000000e+000 2.006454e-001
         vertex 9.883313e-001 0.000000e+000 1.745683e-001
      endloop
   endfacet
   facet normal 0.000000e+000 -1.000000e+000 0.000000e+000
      outer loop
         vertex 6.836471e-001 0.000000e+000 2.006454e-001
         vertex 7.146643e-001 0.000000e+000 2.217589e-001
         vertex 7.488183e-001 0.000000e+000 8.677055e-001
      endloop
   endfacet
   facet normal 0.000000e+000 -1.000000e+000 0.000000e+000
      outer loop
         vertex 7.488183e-001 0.000000e+000 8.677055e-001
         vertex 7.146643e-001 0.000000e+000 2.217589e-001
         vertex 7.488183e-001 0.000000e+000 2.372945e-001
      endloop
   endfacet
   facet normal 0.000000e+000 -1.000000e+000 0.000000e+000
      outer loop
         vertex 7.488183e-001 0.000000e+000 8.677055e-001
         vertex 7.488183e-001 0.000000e+000 2.372945e-001
         vertex 7.851154e-001 0.000000e+000 8.581997e-001
      endloop
   endfacet
   facet normal 0.000000e+000 -1.000000e+000 0.000000e+000
      outer loop
         vertex 7.851154e-001 0.000000e+000 8.581997e-001
         vertex 7.488183e-001 0.000000e+000 2.372945e-001
         vertex 7.851154e-001 0.000000e+000 2.468004e-001
      endloop
   endfacet
   facet normal 0.000000e+000 -1.000000e+000 0.000000e+000
      outer loop
         vertex 7.851154e-001 0.000000e+000 8.581997e-001
         vertex 7.851154e-001 0.000000e+000 2.468004e-001
         vertex 8.225000e-001 0.000000e+000 8.550000e-001
      endloop
   endfacet
   facet normal 0.000000e+000 -1.000000e+000 0.000000e+000
      outer loop
         vertex 8.225000e-001 0.000000e+000 8.550000e-001
         vertex 7.851154e-001 0.000000e+000 2.468004e-001
         vertex 8.225000e-001 0.000000e+000 2.500000e-001
      endloop
   endfacet
   facet normal 0.000000e+000 -1.000000e+000 0.000000e+000
      outer loop
         vertex 8.225000e-001 0.000000e+000 8.550000e-001
         vertex 8.225000e-001 0.000000e+000 2.500000e-001
         vertex 8.598846e-001 0.000000e+000 8.581997e-001
      endloop
   endfacet
   facet normal 0.000000e+000 -1.000000e+000 0.000000e+000
      outer loop
         vertex 8.598846e-001 0.000000e+000 8.581997e-001
         vertex 8.225000e-001 0.000000e+000 2.500000e-001
         vertex 8.598846e-001 0.000000e+000 2.468004e-001
      endloop
   endfacet
   facet normal 0.000000e+000 -1.000000e+000 0.000000e+000
      outer loop
         vertex 8.598846e-001 0.000000e+000 8.581997e-001
         vertex 8.598846e-001 0.000000e+000 2.468004e-001
         vertex 8.961818e-001 0.000000e+000 2.372945e-001
      endloop
   endfacet
   facet normal 0.000000e+000 0.000000e+000 -1.000000e+000
      outer loop
         vertex 1.040445e+000 1.100000e-001 0.000000e+000
         vertex 1.590000e+000 1.100000e-001 0.000000e+000
         vertex 1.040445e+000 0.000000e+000 0.000000e+000
      endloop
   endfacet
   facet normal 0.000000e+000 0.000000e+000 -1.000000e+000
      outer loop
         vertex 1.040445e+000 0.000000e+000 0.000000e+000
         vertex 1.590000e+000 1.100000e-001 0.000000e+000
         vertex 1.590000e+000 0.000000e+000 0.000000e+000
      endloop
   endfacet
   facet normal 0.000000e+000 0.000000e+000 -1.000000e+000
      outer loop
         vertex 6.045551e-001 0.000000e+000 0.000000e+000
         vertex 0.000000e+000 0.000000e+000 0.000000e+000
         vertex 6.045551e-001 1.100000e-001 0.000000e+000
      endloop
   endfacet
   facet normal 0.000000e+000 0.000000e+000 -1.000000e+000
      outer loop
         vertex 6.045551e-001 1.100000e-001 0.000000e+000
         vertex 0.000000e+000 0.000000e+000 0.000000e+000
         vertex 0.000000e+000 1.100000e-001 0.000000e+000
      endloop
   endfacet
   facet normal 0.000000e+000 0.000000e+000 1.000000e+000
      outer loop
         vertex 1.590000e+000 0.000000e+000 1.105000e+000
         vertex 1.590000e+000 1.100000e-001 1.105000e+000
         vertex 1.040445e+000 0.000000e+000 1.105000e+000
      endloop
   endfacet
   facet normal 0.000000e+000 0.000000e+000 1.000000e+000
      outer loop
         vertex 1.040445e+000 0.000000e+000 1.105000e+000
         vertex 1.590000e+000 1.100000e-001 1.105000e+000
         vertex 1.040445e+000 1.100000e-001 1.105000e+000
      endloop
   endfacet
   facet normal 0.000000e+000 0.000000e+000 1.000000e+000
      outer loop
         vertex 0.000000e+000 1.100000e-001 1.105000e+000
         vertex 0.000000e+000 0.000000e+000 1.105000e+000
         vertex 6.045551e-001 1.100000e-001 1.105000e+000
      endloop
   endfacet
   facet normal 0.000000e+000 0.000000e+000 1.000000e+000
      outer loop
         vertex 6.045551e-001 1.100000e-001 1.105000e+000
         vertex 0.000000e+000 0.000000e+000 1.105000e+000
         vertex 6.045551e-001 0.000000e+000 1.105000e+000
      endloop
   endfacet
   facet normal -1.000000e+000 0.000000e+000 0.000000e+000
      outer loop
         vertex 0.000000e+000 1.100000e-001 1.105000e+000
         vertex 0.000000e+000 1.100000e-001 0.000000e+000
         vertex 0.000000e+000 0.000000e+000 1.105000e+000
      endloop
   endfacet
   facet normal -1.000000e+000 0.000000e+000 0.000000e+000
      outer loop
         vertex 0.000000e+000 0.000000e+000 1.105000e+000
         vertex 0.000000e+000 1.100000e-001 0.000000e+000
         vertex 0.000000e+000 0.000000e+000 0.000000e+000
      endloop
   endfacet
   facet normal 1.000000e+000 0.000000e+000 0.000000e+000
      outer loop
         vertex 1.590000e+000 1.100000e-001 0.000000e+000
         vertex 1.590000e+000 1.100000e-001 1.105000e+000
         vertex 1.590000e+000 0.000000e+000 0.000000e+000
      endloop
   endfacet
   facet normal 1.000000e+000 0.000000e+000 0.000000e+000
      outer loop
         vertex 1.590000e+000 0.000000e+000 0.000000e+000
         vertex 1.590000e+000 1.100000e-001 1.105000e+000
         vertex 1.590000e+000 0.000000e+000 1.105000e+000
      endloop
   endfacet
   facet normal 9.968072e-001 0.000000e+000 -7.984682e-002
      outer loop
         vertex 6.045551e-001 1.100000e-001 1.105000e+000
         vertex 6.045551e-001 0.000000e+000 1.105000e+000
         vertex 6.026269e-001 0.000000e+000 1.067528e+000
      endloop
   endfacet
   facet normal 9.997381e-001 0.000000e+000 -2.288713e-002
      outer loop
         vertex 6.045551e-001 1.100000e-001 1.105000e+000
         vertex 6.026269e-001 0.000000e+000 1.067528e+000
         vertex 6.026269e-001 1.100000e-001 1.067528e+000
      endloop
   endfacet
   facet normal 9.958781e-001 0.000000e+000 9.070189e-002
      outer loop
         vertex 6.026269e-001 1.100000e-001 1.067528e+000
         vertex 6.026269e-001 0.000000e+000 1.067528e+000
         vertex 6.070944e-001 0.000000e+000 1.030274e+000
      endloop
   endfacet
   facet normal 9.890872e-001 0.000000e+000 1.473312e-001
      outer loop
         vertex 6.026269e-001 1.100000e-001 1.067528e+000
         vertex 6.070944e-001 0.000000e+000 1.030274e+000
         vertex 6.070944e-001 1.100000e-001 1.030274e+000
      endloop
   endfacet
   facet normal 9.659812e-001 0.000000e+000 2.586123e-001
      outer loop
         vertex 6.070944e-001 1.100000e-001 1.030274e+000
         vertex 6.070944e-001 0.000000e+000 1.030274e+000
         vertex 6.178275e-001 0.000000e+000 9.943206e-001
      endloop
   endfacet
   facet normal 9.496661e-001 0.000000e+000 3.132640e-001
      outer loop
         vertex 6.070944e-001 1.100000e-001 1.030274e+000
         vertex 6.178275e-001 0.000000e+000 9.943206e-001
         vertex 6.178275e-001 1.100000e-001 9.943206e-001
      endloop
   endfacet
   facet normal 9.079862e-001 0.000000e+000 4.190002e-001
      outer loop
         vertex 6.178275e-001 1.100000e-001 9.943206e-001
         vertex 6.178275e-001 0.000000e+000 9.943206e-001
         vertex 6.345141e-001 0.000000e+000 9.607140e-001
      endloop
   endfacet
   facet normal 8.826213e-001 0.000000e+000 4.700847e-001
      outer loop
         vertex 6.178275e-001 1.100000e-001 9.943206e-001
         vertex 6.345141e-001 0.000000e+000 9.607140e-001
         vertex 6.345141e-001 1.100000e-001 9.607140e-001
      endloop
   endfacet
   facet normal 8.235798e-001 0.000000e+000 5.672004e-001
      outer loop
         vertex 6.345141e-001 1.100000e-001 9.607140e-001
         vertex 6.345141e-001 0.000000e+000 9.607140e-001
         vertex 6.566688e-001 0.000000e+000 9.304317e-001
      endloop
   endfacet
   facet normal 7.899031e-001 0.000000e+000 6.132317e-001
      outer loop
         vertex 6.345141e-001 1.100000e-001 9.607140e-001
         vertex 6.566688e-001 0.000000e+000 9.304317e-001
         vertex 6.566688e-001 1.100000e-001 9.304317e-001
      endloop
   endfacet
   facet normal 7.152174e-001 0.000000e+000 6.989021e-001
      outer loop
         vertex 6.566688e-001 1.100000e-001 9.304317e-001
         vertex 6.566688e-001 0.000000e+000 9.304317e-001
         vertex 6.836471e-001 0.000000e+000 9.043546e-001
      endloop
   endfacet
   facet normal 6.742085e-001 0.000000e+000 7.385411e-001
      outer loop
         vertex 6.566688e-001 1.100000e-001 9.304317e-001
         vertex 6.836471e-001 0.000000e+000 9.043546e-001
         vertex 6.836471e-001 1.100000e-001 9.043546e-001
      endloop
   endfacet
   facet normal 5.860510e-001 0.000000e+000 8.102742e-001
      outer loop
         vertex 6.836471e-001 1.100000e-001 9.043546e-001
         vertex 6.836471e-001 0.000000e+000 9.043546e-001
         vertex 7.146643e-001 0.000000e+000 8.832412e-001
      endloop
   endfacet
   facet normal 5.389026e-001 0.000000e+000 8.423681e-001
      outer loop
         vertex 6.836471e-001 1.100000e-001 9.043546e-001
         vertex 7.146643e-001 0.000000e+000 8.832412e-001
         vertex 7.146643e-001 1.100000e-001 8.832412e-001
      endloop
   endfacet
   facet normal 4.398377e-001 0.000000e+000 8.980772e-001
      outer loop
         vertex 7.146643e-001 1.100000e-001 8.832412e-001
         vertex 7.146643e-001 0.000000e+000 8.832412e-001
         vertex 7.488183e-001 0.000000e+000 8.677055e-001
      endloop
   endfacet
   facet normal 3.879213e-001 0.000000e+000 9.216926e-001
      outer loop
         vertex 7.146643e-001 1.100000e-001 8.832412e-001
         vertex 7.488183e-001 0.000000e+000 8.677055e-001
         vertex 7.488183e-001 1.100000e-001 8.677055e-001
      endloop
   endfacet
   facet normal 2.808305e-001 0.000000e+000 9.597574e-001
      outer loop
         vertex 7.488183e-001 1.100000e-001 8.677055e-001
         vertex 7.488183e-001 0.000000e+000 8.677055e-001
         vertex 7.851154e-001 0.000000e+000 8.581997e-001
      endloop
   endfacet
   facet normal 2.256562e-001 0.000000e+000 9.742070e-001
      outer loop
         vertex 7.488183e-001 1.100000e-001 8.677055e-001
         vertex 7.851154e-001 0.000000e+000 8.581997e-001
         vertex 7.851154e-001 1.100000e-001 8.581997e-001
      endloop
   endfacet
   facet normal 1.136546e-001 0.000000e+000 9.935203e-001
      outer loop
         vertex 7.851154e-001 1.100000e-001 8.581997e-001
         vertex 7.851154e-001 0.000000e+000 8.581997e-001
         vertex 8.225000e-001 0.000000e+000 8.550000e-001
      endloop
   endfacet
   facet normal 5.682729e-002 0.000000e+000 9.983840e-001
      outer loop
         vertex 7.851154e-001 1.100000e-001 8.581997e-001
         vertex 8.225000e-001 0.000000e+000 8.550000e-001
         vertex 8.225000e-001 1.100000e-001 8.550000e-001
      endloop
   endfacet
   facet normal -5.682729e-002 0.000000e+000 9.983840e-001
      outer loop
         vertex 8.225000e-001 1.100000e-001 8.550000e-001
         vertex 8.225000e-001 0.000000e+000 8.550000e-001
         vertex 8.598846e-001 0.000000e+000 8.581997e-001
      endloop
   endfacet
   facet normal -1.136546e-001 0.000000e+000 9.935203e-001
      outer loop
         vertex 8.225000e-001 1.100000e-001 8.550000e-001
         vertex 8.598846e-001 0.000000e+000 8.581997e-001
         vertex 8.598846e-001 1.100000e-001 8.581997e-001
      endloop
   endfacet
   facet normal -2.256562e-001 0.000000e+000 9.742070e-001
      outer loop
         vertex 8.598846e-001 1.100000e-001 8.581997e-001
         vertex 8.598846e-001 0.000000e+000 8.581997e-001
         vertex 8.961818e-001 0.000000e+000 8.677055e-001
      endloop
   endfacet
   facet normal -2.808305e-001 0.000000e+000 9.597574e-001
      outer loop
         vertex 8.598846e-001 1.100000e-001 8.581997e-001
         vertex 8.961818e-001 0.000000e+000 8.677055e-001
         vertex 8.961818e-001 1.100000e-001 8.677055e-001
      endloop
   endfacet
   facet normal -3.879213e-001 0.000000e+000 9.216926e-001
      outer loop
         vertex 8.961818e-001 1.100000e-001 8.677055e-001
         vertex 8.961818e-001 0.000000e+000 8.677055e-001
         vertex 9.303357e-001 0.000000e+000 8.832412e-001
      endloop
   endfacet
   facet normal -4.398377e-001 0.000000e+000 8.980772e-001
      outer loop
         vertex 8.961818e-001 1.100000e-001 8.677055e-001
         vertex 9.303357e-001 0.000000e+000 8.832412e-001
         vertex 9.303357e-001 1.100000e-001 8.832412e-001
      endloop
   endfacet
   facet normal -5.389026e-001 0.000000e+000 8.423681e-001
      outer loop
         vertex 9.303357e-001 1.100000e-001 8.832412e-001
         vertex 9.303357e-001 0.000000e+000 8.832412e-001
         vertex 9.613529e-001 0.000000e+000 9.043546e-001
      endloop
   endfacet
   facet normal -5.860509e-001 0.000000e+000 8.102742e-001
      outer loop
         vertex 9.303357e-001 1.100000e-001 8.832412e-001
         vertex 9.613529e-001 0.000000e+000 9.043546e-001
         vertex 9.613529e-001 1.100000e-001 9.043546e-001
      endloop
   endfacet
   facet normal -6.742084e-001 0.000000e+000 7.385411e-001
      outer loop
         vertex 9.613529e-001 1.100000e-001 9.043546e-001
         vertex 9.613529e-001 0.000000e+000 9.043546e-001
         vertex 9.883313e-001 0.000000e+000 9.304317e-001
      endloop
   endfacet
   facet normal -7.152174e-001 0.000000e+000 6.989021e-001
      outer loop
         vertex 9.613529e-001 1.100000e-001 9.043546e-001
         vertex 9.883313e-001 0.000000e+000 9.304317e-001
         vertex 9.883313e-001 1.100000e-001 9.304317e-001
      endloop
   endfacet
   facet normal -7.899031e-001 0.000000e+000 6.132317e-001
      outer loop
         vertex 9.883313e-001 1.100000e-001 9.304317e-001
         vertex 9.883313e-001 0.000000e+000 9.304317e-001
         vertex 1.010486e+000 0.000000e+000 9.607140e-001
      endloop
   endfacet
   facet normal -8.235798e-001 0.000000e+000 5.672004e-001
      outer loop
         vertex 9.883313e-001 1.100000e-001 9.304317e-001
         vertex 1.010486e+000 0.000000e+000 9.607140e-001
         vertex 1.010486e+000 1.100000e-001 9.607140e-001
      endloop
   endfacet
   facet normal -8.826213e-001 0.000000e+000 4.700847e-001
      outer loop
         vertex 1.010486e+000 1.100000e-001 9.607140e-001
         vertex 1.010486e+000 0.000000e+000 9.607140e-001
         vertex 1.027173e+000 0.000000e+000 9.943206e-001
      endloop
   endfacet
   facet normal -9.079862e-001 0.000000e+000 4.190002e-001
      outer loop
         vertex 1.010486e+000 1.100000e-001 9.607140e-001
         vertex 1.027173e+000 0.000000e+000 9.943206e-001
         vertex 1.027173e+000 1.100000e-001 9.943206e-001
      endloop
   endfacet
   facet normal -9.496661e-001 0.000000e+000 3.132640e-001
      outer loop
         vertex 1.027173e+000 1.100000e-001 9.943206e-001
         vertex 1.027173e+000 0.000000e+000 9.943206e-001
         vertex 1.037906e+000 0.000000e+000 1.030274e+000
      endloop
   endfacet
   facet normal -9.659812e-001 0.000000e+000 2.586122e-001
      outer loop
         vertex 1.027173e+000 1.100000e-001 9.943206e-001
         vertex 1.037906e+000 0.000000e+000 1.030274e+000
         vertex 1.037906e+000 1.100000e-001 1.030274e+000
      endloop
   endfacet
   facet normal -9.890872e-001 0.000000e+000 1.473312e-001
      outer loop
         vertex 1.037906e+000 1.100000e-001 1.030274e+000
         vertex 1.037906e+000 0.000000e+000 1.030274e+000
         vertex 1.042373e+000 0.000000e+000 1.067528e+000
      endloop
   endfacet
   facet normal -9.958781e-001 0.000000e+000 9.070189e-002
      outer loop
         vertex 1.037906e+000 1.100000e-001 1.030274e+000
         vertex 1.042373e+000 0.000000e+000 1.067528e+000
         vertex 1.042373e+000 1.100000e-001 1.067528e+000
      endloop
   endfacet
   facet normal -9.997381e-001 0.000000e+000 -2.288713e-002
      outer loop
         vertex 1.042373e+000 1.100000e-001 1.067528e+000
         vertex 1.042373e+000 0.000000e+000 1.067528e+000
         vertex 1.040445e+000 0.000000e+000 1.105000e+000
      endloop
   endfacet
   facet normal -9.968072e-001 0.000000e+000 -7.984682e-002
      outer loop
         vertex 1.042373e+000 1.100000e-001 1.067528e+000
         vertex 1.040445e+000 0.000000e+000 1.105000e+000
         vertex 1.040445e+000 1.100000e-001 1.105000e+000
      endloop
   endfacet
   facet normal -9.968072e-001 0.000000e+000 7.984682e-002
      outer loop
         vertex 1.040445e+000 1.100000e-001 0.000000e+000
         vertex 1.040445e+000 0.000000e+000 0.000000e+000
         vertex 1.042373e+000 0.000000e+000 3.747171e-002
      endloop
   endfacet
   facet normal -9.997381e-001 0.000000e+000 2.288713e-002
      outer loop
         vertex 1.040445e+000 1.100000e-001 0.000000e+000
         vertex 1.042373e+000 0.000000e+000 3.747171e-002
         vertex 1.042373e+000 1.100000e-001 3.747171e-002
      endloop
   endfacet
   facet normal -9.958781e-001 0.000000e+000 -9.070189e-002
      outer loop
         vertex 1.042373e+000 1.100000e-001 3.747171e-002
         vertex 1.042373e+000 0.000000e+000 3.747171e-002
         vertex 1.037906e+000 0.000000e+000 7.472607e-002
      endloop
   endfacet
   facet normal -9.890872e-001 0.000000e+000 -1.473312e-001
      outer loop
         vertex 1.042373e+000 1.100000e-001 3.747171e-002
         vertex 1.037906e+000 0.000000e+000 7.472607e-002
         vertex 1.037906e+000 1.100000e-001 7.472607e-002
      endloop
   endfacet
   facet normal -9.659812e-001 0.000000e+000 -2.586123e-001
      outer loop
         vertex 1.037906e+000 1.100000e-001 7.472607e-002
         vertex 1.037906e+000 0.000000e+000 7.472607e-002
         vertex 1.027173e+000 0.000000e+000 1.106794e-001
      endloop
   endfacet
   facet normal -9.496661e-001 0.000000e+000 -3.132640e-001
      outer loop
         vertex 1.037906e+000 1.100000e-001 7.472607e-002
         vertex 1.027173e+000 0.000000e+000 1.106794e-001
         vertex 1.027173e+000 1.100000e-001 1.106794e-001
      endloop
   endfacet
   facet normal -9.079862e-001 0.000000e+000 -4.190002e-001
      outer loop
         vertex 1.027173e+000 1.100000e-001 1.106794e-001
         vertex 1.027173e+000 0.000000e+000 1.106794e-001
         vertex 1.010486e+000 0.000000e+000 1.442861e-001
      endloop
   endfacet
   facet normal -8.826213e-001 0.000000e+000 -4.700847e-001
      outer loop
         vertex 1.027173e+000 1.100000e-001 1.106794e-001
         vertex 1.010486e+000 0.000000e+000 1.442861e-001
         vertex 1.010486e+000 1.100000e-001 1.442861e-001
      endloop
   endfacet
   facet normal -8.235798e-001 0.000000e+000 -5.672004e-001
      outer loop
         vertex 1.010486e+000 1.100000e-001 1.442861e-001
         vertex 1.010486e+000 0.000000e+000 1.442861e-001
         vertex 9.883313e-001 0.000000e+000 1.745683e-001
      endloop
   endfacet
   facet normal -7.899031e-001 0.000000e+000 -6.132317e-001
      outer loop
         vertex 1.010486e+000 1.100000e-001 1.442861e-001
         vertex 9.883313e-001 0.000000e+000 1.745683e-001
         vertex 9.883313e-001 1.100000e-001 1.745683e-001
      endloop
   endfacet
   facet normal -7.152174e-001 0.000000e+000 -6.989021e-001
      outer loop
         vertex 9.883313e-001 1.100000e-001 1.745683e-001
         vertex 9.883313e-001 0.000000e+000 1.745683e-001
         vertex 9.613529e-001 0.000000e+000 2.006454e-001
      endloop
   endfacet
   facet normal -6.742085e-001 0.000000e+000 -7.385411e-001
      outer loop
         vertex 9.883313e-001 1.100000e-001 1.745683e-001
         vertex 9.613529e-001 0.000000e+000 2.006454e-001
         vertex 9.613529e-001 1.100000e-001 2.006454e-001
      endloop
   endfacet
   facet normal -5.860510e-001 0.000000e+000 -8.102742e-001
      outer loop
         vertex 9.613529e-001 1.100000e-001 2.006454e-001
         vertex 9.613529e-001 0.000000e+000 2.006454e-001
         vertex 9.303357e-001 0.000000e+000 2.217589e-001
      endloop
   endfacet
   facet normal -5.389026e-001 0.000000e+000 -8.423681e-001
      outer loop
         vertex 9.613529e-001 1.100000e-001 2.006454e-001
         vertex 9.303357e-001 0.000000e+000 2.217589e-001
         vertex 9.303357e-001 1.100000e-001 2.217589e-001
      endloop
   endfacet
   facet normal -4.398377e-001 0.000000e+000 -8.980772e-001
      outer loop
         vertex 9.303357e-001 1.100000e-001 2.217589e-001
         vertex 9.303357e-001 0.000000e+000 2.217589e-001
         vertex 8.961818e-001 0.000000e+000 2.372945e-001
      endloop
   endfacet
   facet normal -3.879213e-001 0.000000e+000 -9.216926e-001
      outer loop
         vertex 9.303357e-001 1.100000e-001 2.217589e-001
         vertex 8.961818e-001 0.000000e+000 2.372945e-001
         vertex 8.961818e-001 1.100000e-001 2.372945e-001
      endloop
   endfacet
   facet normal -2.808305e-001 0.000000e+000 -9.597574e-001
      outer loop
         vertex 8.961818e-001 1.100000e-001 2.372945e-001
         vertex 8.961818e-001 0.000000e+000 2.372945e-001
         vertex 8.598846e-001 0.000000e+000 2.468004e-001
      endloop
   endfacet
   facet normal -2.256562e-001 0.000000e+000 -9.742070e-001
      outer loop
         vertex 8.961818e-001 1.100000e-001 2.372945e-001
         vertex 8.598846e-001 0.000000e+000 2.468004e-001
         vertex 8.598846e-001 1.100000e-001 2.468004e-001
      endloop
   endfacet
   facet normal -1.136546e-001 0.000000e+000 -9.935203e-001
      outer loop
         vertex 8.598846e-001 1.100000e-001 2.468004e-001
         vertex 8.598846e-001 0.000000e+000 2.468004e-001
         vertex 8.225000e-001 0.000000e+000 2.500000e-001
      endloop
   endfacet
   facet normal -5.682729e-002 0.000000e+000 -9.983840e-001
      outer loop
         vertex 8.598846e-001 1.100000e-001 2.468004e-001
         vertex 8.225000e-001 0.000000e+000 2.500000e-001
         vertex 8.225000e-001 1.100000e-001 2.500000e-001
      endloop
   endfacet
   facet normal 5.682729e-002 0.000000e+000 -9.983840e-001
      outer loop
         vertex 8.225000e-001 1.100000e-001 2.500000e-001
         vertex 8.225000e-001 0.000000e+000 2.500000e-001
         vertex 7.851154e-001 0.000000e+000 2.468004e-001
      endloop
   endfacet
   facet normal 1.136546e-001 0.000000e+000 -9.935203e-001
      outer loop
         vertex 8.225000e-001 1.100000e-001 2.500000e-001
         vertex 7.851154e-001 0.000000e+000 2.468004e-001
         vertex 7.851154e-001 1.100000e-001 2.468004e-001
      endloop
   endfacet
   facet normal 2.256562e-001 0.000000e+000 -9.742070e-001
      outer loop
         vertex 7.851154e-001 1.100000e-001 2.468004e-001
         vertex 7.851154e-001 0.000000e+000 2.468004e-001
         vertex 7.488183e-001 0.000000e+000 2.372945e-001
      endloop
   endfacet
   facet normal 2.808305e-001 0.000000e+000 -9.597574e-001
      outer loop
         vertex 7.851154e-001 1.100000e-001 2.468004e-001
         vertex 7.488183e-001 0.000000e+000 2.372945e-001
         vertex 7.488183e-001 1.100000e-001 2.372945e-001
      endloop
   endfacet
   facet normal 3.879213e-001 0.000000e+000 -9.216926e-001
      outer loop
         vertex 7.488183e-001 1.100000e-001 2.372945e-001
         vertex 7.488183e-001 0.000000e+000 2.372945e-001
         vertex 7.146643e-001 0.000000e+000 2.217589e-001
      endloop
   endfacet
   facet normal 4.398377e-001 0.000000e+000 -8.980772e-001
      outer loop
         vertex 7.488183e-001 1.100000e-001 2.372945e-001
         vertex 7.146643e-001 0.000000e+000 2.217589e-001
         vertex 7.146643e-001 1.100000e-001 2.217589e-001
      endloop
   endfacet
   facet normal 5.389026e-001 0.000000e+000 -8.423681e-001
      outer loop
         vertex 7.146643e-001 1.100000e-001 2.217589e-001
         vertex 7.146643e-001 0.000000e+000 2.217589e-001
         vertex 6.836471e-001 0.000000e+000 2.006454e-001
      endloop
   endfacet
   facet normal 5.860509e-001 0.000000e+000 -8.102742e-001
      outer loop
         vertex 7.146643e-001 1.100000e-001 2.217589e-001
         vertex 6.836471e-001 0.000000e+000 2.006454e-001
         vertex 6.836471e-001 1.100000e-001 2.006454e-001
      endloop
   endfacet
   facet normal 6.742084e-001 0.000000e+000 -7.385411e-001
      outer loop
         vertex 6.836471e-001 1.100000e-001 2.006454e-001
         vertex 6.836471e-001 0.000000e+000 2.006454e-001
         vertex 6.566688e-001 0.000000e+000 1.745683e-001
      endloop
   endfacet
   facet normal 7.152174e-001 0.000000e+000 -6.989021e-001
      outer loop
         vertex 6.836471e-001 1.100000e-001 2.006454e-001
         vertex 6.566688e-001 0.000000e+000 1.745683e-001
         vertex 6.566688e-001 1.100000e-001 1.745683e-001
      endloop
   endfacet
   facet normal 7.899031e-001 0.000000e+000 -6.132317e-001
      outer loop
         vertex 6.566688e-001 1.100000e-001 1.745683e-001
         vertex 6.566688e-001 0.000000e+000 1.745683e-001
         vertex 6.345141e-001 0.000000e+000 1.442861e-001
      endloop
   endfacet
   facet normal 8.235798e-001 0.000000e+000 -5.672004e-001
      outer loop
         vertex 6.566688e-001 1.100000e-001 1.745683e-001
         vertex 6.345141e-001 0.000000e+000 1.442861e-001
         vertex 6.345141e-001 1.100000e-001 1.442861e-001
      endloop
   endfacet
   facet normal 8.826213e-001 0.000000e+000 -4.700847e-001
      outer loop
         vertex 6.345141e-001 1.100000e-001 1.442861e-001
         vertex 6.345141e-001 0.000000e+000 1.442861e-001
         vertex 6.178275e-001 0.000000e+000 1.106794e-001
      endloop
   endfacet
   facet normal 9.079862e-001 0.000000e+000 -4.190002e-001
      outer loop
         vertex 6.345141e-001 1.100000e-001 1.442861e-001
         vertex 6.178275e-001 0.000000e+000 1.106794e-001
         vertex 6.178275e-001 1.100000e-001 1.106794e-001
      endloop
   endfacet
   facet normal 9.496661e-001 0.000000e+000 -3.132640e-001
      outer loop
         vertex 6.178275e-001 1.100000e-001 1.106794e-001
         vertex 6.178275e-001 0.000000e+000 1.106794e-001
         vertex 6.070944e-001 0.000000e+000 7.472607e-002
      endloop
   endfacet
   facet normal 9.659812e-001 0.000000e+000 -2.586122e-001
      outer loop
         vertex 6.178275e-001 1.100000e-001 1.106794e-001
         vertex 6.070944e-001 0.000000e+000 7.472607e-002
         vertex 6.070944e-001 1.100000e-001 7.472607e-002
      endloop
   endfacet
   facet normal 9.890872e-001 0.000000e+000 -1.473312e-001
      outer loop
         vertex 6.070944e-001 1.100000e-001 7.472607e-002
         vertex 6.070944e-001 0.000000e+000 7.472607e-002
         vertex 6.026269e-001 0.000000e+000 3.747171e-002
      endloop
   endfacet
   facet normal 9.958781e-001 0.000000e+000 -9.070189e-002
      outer loop
         vertex 6.070944e-001 1.100000e-001 7.472607e-002
         vertex 6.026269e-001 0.000000e+000 3.747171e-002
         vertex 6.026269e-001 1.100000e-001 3.747171e-002
      endloop
   endfacet
   facet normal 9.997381e-001 0.000000e+000 2.288713e-002
      outer loop
         vertex 6.026269e-001 1.100000e-001 3.747171e-002
         vertex 6.026269e-001 0.000000e+000 3.747171e-002
         vertex 6.045551e-001 0.000000e+000 0.000000e+000
      endloop
   endfacet
   facet normal 9.968072e-001 0.000000e+000 7.984682e-002
      outer loop
         vertex 6.026269e-001 1.100000e-001 3.747171e-002
         vertex 6.045551e-001 0.000000e+000 0.000000e+000
         vertex 6.045551e-001 1.100000e-001 0.000000e+000
      endloop
   endfacet
endsolid